<?xml version="1.0" standalone="no"?><!DOCTYPE svg PUBLIC "-//W3C//DTD SVG 1.1//EN" "http://www.w3.org/Graphics/SVG/1.1/DTD/svg11.dtd"><svg t="1579402972792" class="icon" viewBox="0 0 1024 1024" version="1.1" xmlns="http://www.w3.org/2000/svg" p-id="1006" width="128" height="128" xmlns:xlink="http://www.w3.org/1999/xlink"><defs><style type="text/css"></style></defs><path d="M501.467429 876.836571c27.40419 0 49.737143 22.28419 50.078476 49.980953 0 27.501714-22.332952 49.93219-49.883429 49.93219H112.298667A112.688762 112.688762 0 0 1 0 864.207238V112.542476A112.688762 112.688762 0 0 1 112.298667 0H728.015238a112.688762 112.688762 0 0 1 112.298667 112.542476v305.980953c0 27.550476-22.332952 49.93219-49.834667 49.93219-27.501714 0-49.883429-22.430476-49.883428-49.93219V112.542476a12.873143 12.873143 0 0 0-12.77562-12.873143H112.298667a12.873143 12.873143 0 0 0-12.775619 12.873143v751.420953c0 7.119238 5.753905 12.873143 12.775619 12.873142h389.168762zM220.40381 274.627048h363.27619a48.761905 48.761905 0 0 1 0 97.523809H220.40381a48.761905 48.761905 0 1 1 0-97.523809z m0 256.682666h209.67619a48.761905 48.761905 0 0 1 0 97.52381h-209.67619a48.761905 48.761905 0 1 1 0-97.52381z m753.468952 219.136c0 21.699048 9.898667 41.20381 25.648762 54.710857 7.314286 6.290286 9.167238 16.62781 4.242286 24.868572l-35.157334 58.172952a20.72381 20.72381 0 0 1-23.795809 8.825905 81.92 81.92 0 0 0-23.990857-3.559619c-37.400381 0-68.656762 24.966095-76.214858 58.270476a20.23619 20.23619 0 0 1-19.894857 15.506286h-69.778285a20.23619 20.23619 0 0 1-19.894858-15.506286c-7.558095-33.304381-38.814476-58.270476-76.214857-58.270476a81.92 81.92 0 0 0-23.990857 3.559619 20.72381 20.72381 0 0 1-23.795809-8.825905l-35.157334-58.221714a19.358476 19.358476 0 0 1 4.242286-24.81981c15.750095-13.507048 25.648762-33.01181 25.648762-54.710857 0-21.699048-9.898667-41.20381-25.648762-54.710857a19.358476 19.358476 0 0 1-4.242286-24.868571l35.157334-58.172953a20.72381 20.72381 0 0 1 23.795809-8.825904c7.558095 2.29181 15.60381 3.559619 23.990857 3.559619 37.400381 0 68.656762-24.966095 76.214857-58.270477a20.23619 20.23619 0 0 1 19.894858-15.555047h69.778285c9.557333 0 17.846857 6.485333 19.894857 15.555047 7.558095 33.304381 38.814476 58.270476 76.214858 58.270477 8.387048 0 16.432762-1.26781 23.990857-3.559619a20.72381 20.72381 0 0 1 23.795809 8.777142l35.157334 58.270477a19.358476 19.358476 0 0 1-4.242286 24.819809 71.92381 71.92381 0 0 0-25.648762 54.710857z m-79.676952 86.113524c6.729143 0 13.360762 0.682667 19.894857 2.096762l20.967619-33.987048a83.382857 83.382857 0 0 1-11.361524-14.140952 78.262857 78.262857 0 0 1-12.434286-42.179048c0-14.872381 4.291048-29.500952 12.434286-42.227809 3.267048-5.071238 7.070476-9.801143 11.410286-14.140953l-21.016381-33.938285a94.695619 94.695619 0 0 1-54.076953-4.291048 88.746667 88.746667 0 0 1-28.086857-17.554286 82.115048 82.115048 0 0 1-22.186667-34.133333h-41.935238a82.115048 82.115048 0 0 1-22.186666 34.133333 88.746667 88.746667 0 0 1-28.038096 17.554286 93.379048 93.379048 0 0 1-54.076952 4.291048l-20.967619 33.987047c4.291048 4.291048 8.143238 9.020952 11.361524 14.140953 8.143238 12.678095 12.434286 27.306667 12.434286 42.179047 0 14.872381-4.291048 29.45219-12.434286 42.179048a83.431619 83.431619 0 0 1-11.361524 14.140952l20.967619 33.987048a94.646857 94.646857 0 0 1 54.076952 4.291048c10.532571 4.096 19.992381 9.99619 28.086858 17.554285a82.115048 82.115048 0 0 1 22.186666 34.133334h41.935238a82.115048 82.115048 0 0 1 22.186667-34.133334 88.746667 88.746667 0 0 1 28.038095-17.554285c10.873905-4.242286 22.381714-6.38781 34.182096-6.38781zM790.430476 662.674286a87.771429 87.771429 0 1 1-87.771428 87.771428c0-47.786667 40.17981-86.698667 87.771428-87.771428z m31.402667 118.832762a43.593143 43.593143 0 0 0 12.824381-31.061334 43.593143 43.593143 0 0 0-12.824381-31.012571 43.593143 43.593143 0 0 0-31.061333-12.873143 43.593143 43.593143 0 0 0-31.012572 12.873143 43.593143 43.593143 0 0 0-12.873143 31.012571c0 11.702857 4.583619 22.77181 12.873143 31.061334 8.289524 8.289524 19.309714 12.824381 31.012572 12.824381s22.77181-4.534857 31.061333-12.824381z" p-id="1007"></path></svg>