<?xml version="1.0" standalone="no"?><!DOCTYPE svg PUBLIC "-//W3C//DTD SVG 1.1//EN" "http://www.w3.org/Graphics/SVG/1.1/DTD/svg11.dtd"><svg t="1579403191317" class="icon" viewBox="0 0 1024 1024" version="1.1" xmlns="http://www.w3.org/2000/svg" p-id="1714" xmlns:xlink="http://www.w3.org/1999/xlink" width="128" height="128"><defs><style type="text/css"></style></defs><path d="M816.8 853.3c0 41.9-34.3 76.2-76.2 76.2L283.4 929.5c-41.9 0-76.2-34.3-76.2-76.2l0-685.9c0-41.9 34.3-76.2 76.2-76.2l277.8 0c27.4 6.9 27.1 40.8 27.1 74.3l0 116.2c0 21 17.1 38.1 38.1 38.1l114.3 0c38.1 0 76.2 0 76.2 38.1L816.8 853.3zM789 175.4l-28.2-28.2-28.2-28.2c-65.2-66.3-104-104-144.4-104L283.4 15c-84.2 0-152.4 68.2-152.4 152.4l0 685.9c0 84.2 68.2 152.4 152.4 152.4l457.3 0c84.2 0 152.4-68.2 152.4-152.4L893.1 319.8C893.1 279.4 855.3 240.6 789 175.4zM359.6 434.2l-76.2 0 0 76.2 76.2 0L359.6 434.2zM359.6 586.6l-76.2 0 0 76.2 76.2 0L359.6 586.6zM359.6 739l-76.2 0 0 76.2 76.2 0L359.6 739zM740.6 434.2 435.8 434.2l0 76.2 304.8 0L740.6 434.2zM740.6 586.6 435.8 586.6l0 76.2 304.8 0L740.6 586.6zM740.6 739 435.8 739l0 76.2 304.8 0L740.6 739zM321.5 205.5c-21 0-38.1 17.1-38.1 38.1l0 38.1c0 21 17.1 38.1 38.1 38.1l201.2 0c-6.5-11.1-10.6-24-10.6-38.1l0-76.2L321.5 205.5z" p-id="1715"></path></svg>