<?xml version="1.0" standalone="no"?><!DOCTYPE svg PUBLIC "-//W3C//DTD SVG 1.1//EN" "http://www.w3.org/Graphics/SVG/1.1/DTD/svg11.dtd"><svg t="1579406139952" class="icon" viewBox="0 0 1024 1024" version="1.1" xmlns="http://www.w3.org/2000/svg" p-id="24136" xmlns:xlink="http://www.w3.org/1999/xlink" width="128" height="128"><defs><style type="text/css"></style></defs><path d="M706.852571 487.765333c134.558476 0 243.614476 109.031619 243.614477 243.565715 0 134.509714-109.056 243.565714-243.614477 243.565714-134.534095 0-243.614476-109.056-243.614476-243.565714 0-134.534095 109.080381-243.565714 243.614476-243.565715z m121.539048-414.47619c26.89219 0 48.713143 21.796571 48.713143 48.713143V493.470476a291.05981 291.05981 0 0 0-170.544762-54.857143c-161.426286 0-292.327619 130.852571-292.327619 292.278857 0 87.28381 38.278095 165.64419 98.986667 219.184762H146.236952A48.713143 48.713143 0 0 1 97.52381 901.436952V122.002286c0-26.916571 21.820952-48.713143 48.713142-48.713143h682.154667zM739.815619 580.022857l-1.560381 2.389333-4.193524 7.216762a147.114667 147.114667 0 0 0-53.491809 0l-4.144762-7.216762a24.380952 24.380952 0 0 0-30.768762-10.215619l-2.535619 1.292191-42.22781 24.380952a24.380952 24.380952 0 0 0-10.215619 30.768762l1.292191 2.535619 4.169143 7.241143a146.139429 146.139429 0 0 0-26.770286 46.299429h-8.313905a24.380952 24.380952 0 0 0-24.234666 21.528381l-0.146286 2.852571v48.761905a24.380952 24.380952 0 0 0 21.528381 24.210286l2.852571 0.170666h8.313905a146.139429 146.139429 0 0 0 26.770286 46.299429l-4.169143 7.241143a24.380952 24.380952 0 0 0 6.534095 31.744l2.389333 1.560381 42.22781 24.380952a24.380952 24.380952 0 0 0 31.744-6.534095l1.560381-2.389334 4.144762-7.216762a147.114667 147.114667 0 0 0 53.491809 0l4.193524 7.216762a24.380952 24.380952 0 0 0 30.744381 10.215619l2.56-1.29219 42.22781-24.380952a24.380952 24.380952 0 0 0 10.191238-30.744381l-1.26781-2.56-4.193524-7.216762a146.139429 146.139429 0 0 0 26.770286-46.32381h8.338286a24.380952 24.380952 0 0 0 24.210285-21.528381l0.170667-2.852571v-48.761905a24.380952 24.380952 0 0 0-21.552762-24.210286l-2.82819-0.170666h-8.338286a146.139429 146.139429 0 0 0-26.770286-46.299429l4.193524-7.241143a24.380952 24.380952 0 0 0-6.558476-31.744l-2.364952-1.560381-42.22781-24.380952a24.380952 24.380952 0 0 0-31.744 6.534095z m-32.475429 80.310857a73.142857 73.142857 0 1 1 0 146.285715 73.142857 73.142857 0 0 1 0-146.285715zM438.857143 316.952381h-97.52381v97.523809h97.52381v-97.523809z m-146.285714 0H195.047619v97.523809h97.52381v-97.523809z m0-146.285714H195.047619v97.523809h97.52381V170.666667z m146.285714 0h-97.52381v97.523809h97.52381V170.666667z" p-id="24137"></path></svg>