<?xml version="1.0" standalone="no"?><!DOCTYPE svg PUBLIC "-//W3C//DTD SVG 1.1//EN" "http://www.w3.org/Graphics/SVG/1.1/DTD/svg11.dtd"><svg t="1579416813237" class="icon" viewBox="0 0 1024 1024" version="1.1" xmlns="http://www.w3.org/2000/svg" p-id="25124" width="128" height="128" xmlns:xlink="http://www.w3.org/1999/xlink"><defs><style type="text/css"></style></defs><path d="M93.888 246.828H406.637c16.063 0 29.608 13.761 29.608 30.252 0 16.298-13.545 29.609-29.608 29.609H123.711v455.266h655.965v-149.27c0-16.063 13.526-29.198 29.803-29.198 16.492 0 29.823 13.35 29.823 29.198v178.898c0 16.278-13.33 30.018-29.823 30.018H481.507v32.77l-0.234 2.752H646.86c10.17 0 18.19 7.825 18.19 17.974 0 9.721-8.021 17.977-18.19 17.977H256.509c-9.933 0-17.78-8.256-17.78-17.977 0-10.149 7.847-17.974 17.78-17.974h165.782l-0.429-2.752v-32.77H93.888c-16.278 0-29.802-13.74-29.802-30.018V277.081c0-16.491 13.525-30.253 29.802-30.253z" p-id="25125"></path><path d="M733.766 497.723c0-10.121 8.312-18.302 18.301-18.302 10.121 0 18.302 8.181 18.302 18.302v46.208c0 9.977-8.181 18.409-18.302 18.409h-81.36c-10.133 0-18.301-8.432-18.301-18.409h-0.131v-32.182c-5.319-1.952-10.648-3.893-16.098-5.989-5.306-2.204-10.371-4.66-15.57-7.378l-22.84 22.959c-7.007 7.127-18.421 7.127-25.691 0h-0.132l-0.252-0.251-57.226-57.49c-7.27-7.019-7.007-18.696 0-25.703l22.709-22.709c-2.588-5.186-5.067-10.505-7.139-15.57-2.203-5.318-4.156-10.767-5.965-16.349h-32.182c-10.264 0-18.432-8.049-18.432-18.169l0.263-1.677v-79.815c0-9.989 8.037-18.169 18.169-18.169v-0.251h32.182c1.809-5.198 3.761-10.779 5.965-15.966 2.336-5.054 4.551-10.371 7.139-15.57l-22.709-22.84c-7.007-6.875-7.27-18.684 0-25.571v-0.252l0.252-0.263 57.358-57.358c7.27-7.126 18.684-7.126 25.691 0.144l22.84 22.96c5.199-2.599 10.264-5.318 15.57-7.39l0.91-0.263c5.066-2.204 9.989-3.893 15.188-5.713v-32.182c0-10.001 8.299-18.421 18.432-18.421h81.36c10.121 0 18.302 8.42 18.302 18.421v32.182c5.449 1.821 10.899 3.761 16.084 5.977 5.45 2.072 10.636 4.791 15.438 7.39l22.973-22.96c7.006-7.27 18.695-7.27 25.69-0.144l0.252 0.144 0.275 0.252 57.226 57.478c7.138 6.887 7.138 18.696-0.132 25.571l-22.577 22.972c2.587 5.066 4.935 10.384 7.138 15.438 2.204 5.319 4.276 10.768 5.701 15.966h32.314c10.372 0 18.433 8.432 18.433 18.421v1.689l-0.132 80.067c0 9.856-8.18 17.906-18.301 17.906h-45.932c-10.132 0-18.433-8.049-18.433-17.906 0-10.252 8.301-18.433 18.433-18.433h27.763v-45.022h-27.763c-8.564 0-15.834-5.845-17.917-13.882-2.073-8.707-4.66-17.007-7.785-24.66-3.366-7.905-7.391-15.45-11.666-22.313-4.683-7.27-3.893-17.007 2.324-23.367l19.726-19.727-31.655-31.655-19.21 19.199c-5.714 6.241-15.57 7.798-23.224 3.114-7.15-4.658-15.055-8.443-22.972-11.797-7.653-3.126-15.57-5.713-23.882-7.665-8.432-1.689-14.792-9.079-14.792-17.906v-28.038h-44.902v28.038c0 8.037-5.713 15.69-14.145 17.655-8.168 1.94-16.085 4.408-23.487 7.402l-1.03 0.515c-8.049 3.234-15.702 7.138-22.972 11.797-6.875 4.289-16.48 3.51-22.445-2.718l-19.738-19.594-32.051 31.655 19.223 19.08c6.611 5.832 8.168 15.57 3.234 23.224-4.408 7.521-8.3 15.055-11.678 23.104a167.805 167.805 0 0 0-7.785 23.619c-1.557 8.312-8.959 14.923-17.918 14.923h-28.026v45.022h28.026c8.192 0 15.846 5.45 17.654 14.156 2.084 8.301 4.935 16.745 8.049 24.398 3.114 8.168 7.27 15.69 11.678 22.96 4.42 7.27 3.629 16.612-2.599 22.577l-19.858 19.858 32.051 31.787 18.948-19.068c5.965-6.611 15.846-7.917 23.236-3.378 7.27 4.539 14.923 8.695 22.972 11.797a153.006 153.006 0 0 0 23.751 7.677c8.683 1.665 14.911 9.066 14.911 17.894v28.038h44.902l-0.001-27.91z m-22.577-296.637c49.573 0 94.991 30.362 114.189 76.161 5.977 14.541 9.354 30.494 9.354 47.107 0 16.611-3.378 32.566-9.354 47.238l-0.514 0.91c-3.893 9.21-8.564 17.259-14.277 25.176l77.851 77.851a18.627 18.627 0 0 1 0 25.954c-7.246 7.138-18.684 7.138-25.942 0l-77.863-77.851c-8.036 5.701-16.876 10.767-26.218 14.66-14.516 6.096-30.494 9.474-47.226 9.474-16.6 0-32.445-3.378-46.986-9.474l-1.029-0.395c-14.792-6.36-28.026-15.307-39.058-26.338-22.972-22.972-36.207-54.639-36.207-87.205 0-16.612 3.378-32.566 9.606-47.107l0.252-1.029c6.504-14.792 15.319-28.026 26.35-39.057 22.959-22.972 54.627-36.075 87.072-36.075z m0 36.59c-23.103 0-44.639 8.827-61.251 25.439-7.785 7.785-14.013 16.996-18.552 26.985l-0.263 1.306c-4.012 9.989-6.492 21.271-6.492 32.949 0 34.518 20.636 66.185 52.687 79.803l0.91 0.395c10.121 4.408 21.283 6.611 32.961 6.611 11.941 0 23.104-2.204 33.224-6.611h0.251c31.932-13.103 53.478-45.154 53.478-80.198 0-11.678-2.348-22.96-6.504-32.949v-0.275c-13.485-32.435-45.536-53.455-80.449-53.455zM328.516 343.872c32.913 0 62.725 13.323 84.398 34.996 21.48 21.462 34.794 51.191 34.794 84.105 0 33.005-13.314 62.725-34.794 84.196-3.964 4.083-8.24 7.662-12.616 11.038 20.177 5.377 37.969 16.103 52.393 30.418 21.269 21.086 34.592 50.705 34.592 82.912v22.471c0 7.753-6.369 14.12-14.122 14.12H184.072c-7.763 0-14.121-6.367-14.121-14.12v-22.471c0-32.207 13.222-61.826 34.602-82.912 14.213-14.507 32.4-25.041 52.384-30.418-4.469-3.487-8.653-6.955-12.516-11.038-21.59-21.471-34.904-51.191-34.904-84.196 0-32.913 13.314-62.643 34.904-84.105 21.461-21.673 51.383-34.996 84.095-34.996z m64.524 54.678c-16.507-16.498-39.18-26.646-64.524-26.646-25.151 0-47.916 10.148-64.322 26.646-16.498 16.506-26.738 39.261-26.738 64.423 0 25.05 10.24 47.916 26.738 64.423v0.101c16.406 16.397 39.171 26.637 64.322 26.637 25.343 0 47.916-10.24 64.414-26.738 16.507-16.507 26.747-39.373 26.747-64.423 0-25.161-10.24-47.917-26.747-64.423h0.11z m-23.27 183.514h-82.315c-24.655 0-46.915 10.139-63.019 26.454-16.314 16.103-26.252 38.465-26.252 63.019v8.552h261.059v-8.552c0-24.554-10.139-46.915-26.344-63.019v-0.202c-16.204-16.112-38.465-26.252-63.129-26.252z" p-id="25126"></path></svg>