<?xml version="1.0" standalone="no"?><!DOCTYPE svg PUBLIC "-//W3C//DTD SVG 1.1//EN" "http://www.w3.org/Graphics/SVG/1.1/DTD/svg11.dtd"><svg t="1579402820250" class="icon" viewBox="0 0 1024 1024" version="1.1" xmlns="http://www.w3.org/2000/svg" p-id="829" width="128" height="128" xmlns:xlink="http://www.w3.org/1999/xlink"><defs><style type="text/css"></style></defs><path d="M938.666667 256h-349.866667c-29.866667-98.133333-119.466667-170.666667-230.4-170.666667H85.333333C38.4 85.333333 0 123.733333 0 170.666667v682.666666c0 46.933333 38.4 85.333333 85.333333 85.333334h853.333334c46.933333 0 85.333333-38.4 85.333333-85.333334V341.333333c0-46.933333-38.4-85.333333-85.333333-85.333333zM68.266667 170.666667c0-8.533333 8.533333-17.066667 17.066666-17.066667h273.066667c68.266667 0 132.266667 42.666667 157.866667 102.4H68.266667V170.666667z m887.466666 682.666666c0 8.533333-8.533333 17.066667-17.066666 17.066667H85.333333c-8.533333 0-17.066667-8.533333-17.066666-17.066667V324.266667H938.666667c8.533333 0 17.066667 8.533333 17.066666 17.066666v512z" p-id="830"></path><path d="M507.733333 384L426.666667 490.666667l-128 42.666666 76.8 110.933334 4.266666 132.266666 128-38.4 128 38.4 4.266667-132.266666 76.8-110.933334-128-42.666666L507.733333 384z m59.733334 238.933333v64l-59.733334-17.066666-59.733333 17.066666v-64l-38.4-51.2 59.733333-21.333333 38.4-51.2 38.4 51.2 59.733334 21.333333-38.4 51.2z" p-id="831"></path></svg>