<?xml version="1.0" standalone="no"?><!DOCTYPE svg PUBLIC "-//W3C//DTD SVG 1.1//EN" "http://www.w3.org/Graphics/SVG/1.1/DTD/svg11.dtd"><svg t="1583914109067" class="icon" viewBox="0 0 1024 1024" version="1.1" xmlns="http://www.w3.org/2000/svg" p-id="834" width="16" height="16" xmlns:xlink="http://www.w3.org/1999/xlink"><defs><style type="text/css"></style></defs><path d="M446.93016259765625 622.8358481445313c-12.37496923828125 0-24.29993935546875-4.904987695312499-33.0299173828125-13.67996572265625a219.59945068359374 219.59945068359374 0 0 1 0-310.22922480468753l172.61956845703125-172.66456845703127A217.934455078125 217.934455078125 0 0 1 741.6344260742188 62.002250000000004c58.58985322265625 0 113.71471611328126 22.814942871093752 155.1596115234375 64.25983916015625a219.59945068359374 219.59945068359374 0 0 1 0 310.22922480468753l-78.92980224609374 78.92980224609374a46.75488310546874 46.75488310546874 0 1 1-66.10483476562499-66.10483476562499l78.92980312499999-78.92980224609374a125.99968535156252 125.99968535156252 0 0 0 0-177.97455527343752 125.05468710937501 125.05468710937501 0 0 0-89.00977763671875-36.89990771484375 125.00968710937501 125.00968710937501 0 0 0-89.00977763671875 36.89990771484375L480.0050799804688 365.03149238281253a125.99968535156252 125.99968535156252 0 0 0 0 178.0195552734375 46.75488310546874 46.75488310546874 0 0 1-33.0749173828125 79.78480048828125z m-165.64458603515624 338.30915361328124a217.979455078125 217.979455078125 0 0 1-155.11461240234377-64.25983916015625 219.59945068359374 219.59945068359374 0 0 1 0-310.27422392578126l78.88480312499999-78.88480312499999a46.75488310546874 46.75488310546874 0 1 1 66.149834765625 66.10483476562499l-78.92980312499999 78.88480312499999a125.99968535156252 125.99968535156252 0 0 0 0 178.01955439453124c23.759940234375 23.804940234375 55.34986201171875 36.89990771484375 89.00977763671875 36.89990771484375 33.614915625 0 65.2498365234375-13.09496748046875 89.00977763671875-36.89990771484375l172.61956845703125-172.61956845703125a125.99968535156252 125.99968535156252 0 0 0 0-178.01955439453124 46.75488310546874 46.75488310546874 0 1 1 66.149834765625-66.149834765625 219.59945068359374 219.59945068359374 0 0 1 0 310.3192239257813L436.4001889648438 896.8851625976562a217.799455078125 217.799455078125 0 0 1-155.11461240234377 64.25983916015625z" p-id="835"></path></svg>