<?xml version="1.0" standalone="no"?><!DOCTYPE svg PUBLIC "-//W3C//DTD SVG 1.1//EN" "http://www.w3.org/Graphics/SVG/1.1/DTD/svg11.dtd"><svg t="1588755225665" class="icon" viewBox="0 0 1024 1024" version="1.1" xmlns="http://www.w3.org/2000/svg" p-id="6673" width="128" height="128" xmlns:xlink="http://www.w3.org/1999/xlink"><defs><style type="text/css"></style></defs><path d="M987.420444 410.908444h-123.448888V281.088a36.522667 36.522667 0 0 0-36.522667-36.579556H467.456L333.368889 116.280889A9.329778 9.329778 0 0 0 327.111111 113.777778H36.579556A36.522667 36.522667 0 0 0 0 150.357333v676.579556c0 20.195556 16.327111 36.579556 36.579556 36.579555h797.696a36.636444 36.636444 0 0 0 33.962666-22.869333l153.144889-379.448889a36.522667 36.522667 0 0 0-33.962667-50.289778z m-205.710222 0H198.883556a36.636444 36.636444 0 0 0-33.962667 22.869334l-82.659556 204.8V196.039111h215.438223l136.704 130.787556h347.306666v84.081777z" p-id="6674"></path></svg>