<?xml version="1.0" standalone="no"?><!DOCTYPE svg PUBLIC "-//W3C//DTD SVG 1.1//EN" "http://www.w3.org/Graphics/SVG/1.1/DTD/svg11.dtd"><svg t="1579406353512" class="icon" viewBox="0 0 1024 1024" version="1.1" xmlns="http://www.w3.org/2000/svg" p-id="24456" width="128" height="128" xmlns:xlink="http://www.w3.org/1999/xlink"><defs><style type="text/css"></style></defs><path d="M512 73.143a438.857 438.857 0 1 0 0 877.714 438.857 438.857 0 0 0 0-877.714z m0 62.903a373.54 373.54 0 0 1 265.801 110.153A374.638 374.638 0 0 1 887.954 512a373.54 373.54 0 0 1-110.08 265.801A374.71 374.71 0 0 1 512 887.954a373.54 373.54 0 0 1-265.801-110.08A374.638 374.638 0 0 1 136.046 512a373.54 373.54 0 0 1 110.08-265.801A374.71 374.71 0 0 1 512 136.046z m68.315 314.807a110.665 110.665 0 0 0-26.697-22.236 17.847 17.847 0 1 0-18.285 30.72c6.729 3.95 12.8 9.07 18.066 15.068l1.463 1.682c27.428 31.451 24.137 79.36-7.315 106.788l-134.07 117.029c-31.452 27.429-79.434 24.137-106.789-7.314l-1.463-1.683a75.118 75.118 0 0 1-18.432-54.93c1.39-20.26 10.46-38.692 25.6-51.931l67.072-58.515a17.847 17.847 0 1 0-23.479-26.916l-67.072 58.514c-22.308 19.53-35.767 46.665-37.815 76.434-1.974 29.77 7.607 58.515 27.063 80.823l1.536 1.683c21.943 25.234 52.956 38.18 84.115 38.18 25.965 0 52.077-9.07 73.142-27.428l134.071-117.029a111.616 111.616 0 0 0 10.752-157.257l-1.463-1.682z m165.45-141.312l-1.463-1.683a110.665 110.665 0 0 0-76.508-37.815c-29.696-2.048-58.514 7.607-80.823 27.063l-134.07 117.029a111.616 111.616 0 0 0-10.752 157.257l1.462 1.682c6.803 7.753 14.556 14.483 23.114 20.041a17.774 17.774 0 0 0 24.722-5.193 17.847 17.847 0 0 0-5.193-24.795 75.118 75.118 0 0 1-15.653-13.532l-1.463-1.755a75.776 75.776 0 0 1 7.315-106.789l134.07-117.028c15.141-13.166 34.67-19.749 54.858-18.286 20.26 1.39 38.765 10.46 51.931 25.6l1.463 1.756c27.428 31.451 24.137 79.36-7.314 106.788l-67 58.514a17.847 17.847 0 1 0 23.48 26.917l67.072-58.514a111.543 111.543 0 0 0 10.752-157.257z" p-id="24457"></path></svg>