<?xml version="1.0" standalone="no"?><!DOCTYPE svg PUBLIC "-//W3C//DTD SVG 1.1//EN" "http://www.w3.org/Graphics/SVG/1.1/DTD/svg11.dtd"><svg t="1590137308545" class="icon" viewBox="0 0 1045 1024" version="1.1" xmlns="http://www.w3.org/2000/svg" p-id="9697" xmlns:xlink="http://www.w3.org/1999/xlink" width="130.625" height="128"><defs><style type="text/css"></style></defs><path d="M522.87183 0C234.125617 0 0 235.018894 0 525.006979 0 756.888511 149.809021 953.670809 357.61566 1023.084936c26.144681 4.836766 35.709277-11.372936 35.709276-25.273191 0-12.484085-0.457532-45.491745-0.740766-89.284085-145.451574 31.722213-176.149787-70.372766-176.149787-70.372766-23.748085-60.65566-58.041191-76.8-58.041192-76.8-47.474383-32.571915 3.616681-31.918298 3.616681-31.918298 52.441872 3.70383 80.068085 54.097702 80.068085 54.097702 46.668255 80.242383 122.378894 57.082553 152.18383 43.618042 4.72783-33.922723 18.257702-57.060766 33.203745-70.17668-116.125957-13.268426-238.178043-58.280851-238.178043-259.442383 0-57.300426 20.349277-104.164766 53.814468-140.876256-5.381447-13.290213-23.31234-66.647149 5.12-138.937191 0 0 43.923064-14.09634 143.795745 53.814468 41.722553-11.634383 86.429957-17.451574 130.897702-17.669447 44.42417 0.217872 89.153362 6.035064 130.941277 17.669447 99.785532-67.910809 143.621447-53.814468 143.621447-53.814468 28.541277 72.290043 10.588596 125.646979 5.185361 138.937191 33.55234 36.711489 53.770894 83.554043 53.770894 140.876256 0 201.662638-122.269957 246.043234-238.744511 259.050212 18.758809 16.209702 35.513191 48.215149 35.513192 97.214639 0 70.154894-0.653617 126.779915-0.653617 144.013617 0 14.030979 9.412085 30.371404 35.948936 25.207829C896.108936 953.474723 1045.787234 756.844936 1045.787234 525.006979 1045.787234 235.018894 811.661617 0 522.87183 0" fill="#13227a" p-id="9698"></path></svg>