<?xml version="1.0" standalone="no"?><!DOCTYPE svg PUBLIC "-//W3C//DTD SVG 1.1//EN" "http://www.w3.org/Graphics/SVG/1.1/DTD/svg11.dtd"><svg t="1579227042359" class="icon" viewBox="0 0 1024 1024" version="1.1" xmlns="http://www.w3.org/2000/svg" p-id="3294" width="128" height="128" xmlns:xlink="http://www.w3.org/1999/xlink"><defs><style type="text/css"></style></defs><path d="M867.134633 0.093793C713.627334 29.989088 581.984213 128.530575 479.335558 237.118591l-29.818953 85.624521 3.771266-57.194982a1437.142238 1437.142238 0 0 0-108.404797 138.834481l-14.138428 43.224505-9.359457 76.47882-9.649554-69.592826c-46.949965 74.17331-73.470969 130.162097-76.234528 140.071212 0 0 0.870292 97.426902-98.41934 402.746722-3.755997 12.413113 4.229314 20.627448 2.137559 26.688956 5.069069-2.671949 74.509212-221.252663 84.998521-241.62055 157.263297-329.153607 349.521494-471.408183 413.571934-509.212447l-339.413892 422.030561c109.00026 41.606066 215.649204-19.115888 234.917775-34.994901a2.885705 2.885705 0 0 0-0.717609-4.580484l-71.760922-23.650568 96.73983-26.627882a28.261589 28.261589 0 0 0 10.687797-5.252289c63.928293-44.522308 81.410475-110.908795 85.395497-127.703904a2.351315 2.351315 0 0 0-3.053656-3.053656l-87.365106 15.268281 95.365685-51.102937a36.017875 36.017875 0 0 0 11.573357-9.832773C766.379245 295.977815 890.235543 63.823599 887.655203 14.827684c0 0 4.275119-16.199646-20.52057-14.733891z" fill="#007fff" p-id="3295"></path></svg>