<?xml version="1.0" standalone="no"?><!DOCTYPE svg PUBLIC "-//W3C//DTD SVG 1.1//EN" "http://www.w3.org/Graphics/SVG/1.1/DTD/svg11.dtd"><svg t="1590137234801" class="icon" viewBox="0 0 1024 1024" version="1.1" xmlns="http://www.w3.org/2000/svg" p-id="5301" xmlns:xlink="http://www.w3.org/1999/xlink" width="128" height="128"><defs><style type="text/css"></style></defs><path d="M511.49824 1.00352C228.89472 1.00352 0 229.888 0 512.50176s228.89472 511.488 511.49824 511.488 511.49824-228.88448 511.49824-511.488C1022.99648 229.89824 794.112 1.00352 511.50848 1.00352z m269.824 670.0544c-11.50976 6.4-30.68928-7.65952-48.59904-34.5088-6.38976 28.11904-24.28928 53.69856-48.5888 74.15808 25.56928 8.94976 42.1888 25.57952 42.1888 42.19904 0 29.40928-46.0288 52.4288-102.2976 52.4288-51.13856 0-93.3376-19.18976-101.0176-43.47904h-12.78976c-7.66976 24.28928-49.8688 43.47904-101.0176 43.47904-56.2688 0-102.2976-23.01952-102.2976-52.4288 0-17.89952 16.61952-33.24928 42.1888-42.19904-24.28928-20.45952-42.1888-46.03904-48.5888-74.16832-17.89952 25.56928-37.07904 39.63904-48.5888 34.51904-17.89952-8.94976-14.06976-57.53856 7.68-107.4176 16.61952-39.6288 39.6288-69.03808 57.53856-75.43808v-7.68c0-15.33952 3.82976-29.39904 11.50976-40.91904v-2.54976c0-7.68 1.26976-14.05952 5.12-19.17952 6.37952-104.8576 74.15808-186.69568 184.12544-186.69568 109.9776 0 177.75616 81.83808 182.86592 185.41568 2.56 5.12 5.12 12.78976 5.12 19.17952v2.56c7.66976 11.50976 11.50976 25.56928 11.50976 40.91904v7.68c17.89952 6.37952 40.9088 35.79904 57.53856 75.43808 20.45952 51.1488 24.29952 99.7376 6.38976 108.68736z" fill="#34AEFF" p-id="5302"></path></svg>