<?xml version="1.0" standalone="no"?><!DOCTYPE svg PUBLIC "-//W3C//DTD SVG 1.1//EN" "http://www.w3.org/Graphics/SVG/1.1/DTD/svg11.dtd"><svg t="1579405026929" class="icon" viewBox="0 0 1024 1024" version="1.1" xmlns="http://www.w3.org/2000/svg" p-id="7149" width="128" height="128" xmlns:xlink="http://www.w3.org/1999/xlink"><defs><style type="text/css"></style></defs><path d="M987.664936 438.737947l-307.540032 532.645965c-26.742612 46.331574-90.657453 63.513702-136.989028 36.771091l-463.182031-267.426115c-46.331574-26.742612-63.513702-90.72431-36.771091-137.055884l153.770016-266.356411 153.770017-266.289554c6.685653-11.566179 15.844997-14.039871 30.754003-13.170736L627.04082 60.597421c18.251832-4.880527 32.291703 10.964471 28.079742 31.689994a35.233391 35.233391 0 0 1-35.032821 33.829404l-206.452961-3.409683s-14.909006-0.869135-21.594659 10.697044l-290.8259 503.697088c-10.028479 17.382697-5.147953 35.63453 12.234745 45.663009l463.182031 267.426115c17.382697 10.028479 35.63453 5.147953 45.663009-12.234745l290.825901-503.697087c6.685653-11.566179-1.5377-24.06835-1.537701-24.068351l-102.825341-182.919462c-14.039871-15.778141-4.011392-33.160838 8.423923-41.451048 15.844997-14.039871 36.570521-9.761053 47.267566 11.833606l125.021708 211.26663c2.540548 9.092488 4.947383 18.251832-1.738269 29.818012z" p-id="7150"></path><path d="M478.686183 584.886319c46.331574 26.742612 110.246416 9.62734 136.989027-36.704234 26.742612-46.331574 9.62734-110.246416-36.704234-136.989028-46.331574-26.742612-110.246416-9.62734-136.989028 36.704235-26.742612 46.331574-9.62734 110.313272 36.704235 137.055884z m-33.428265 57.897754a165.536765 165.536765 0 0 1-61.173724-228.315046A165.536765 165.536765 0 0 1 612.39924 353.295303a165.536765 165.536765 0 0 1 61.173724 228.315046A165.536765 165.536765 0 0 1 445.257918 642.784073zM767.305817 18.143525l-133.713057 231.591015c-10.028479 17.382697-5.147953 35.63453 12.234745 45.66301s35.63453 5.147953 45.663009-12.234745l133.713057-231.591016c10.028479-17.382697 5.147953-35.63453-12.234745-45.663009-17.382697-10.028479-35.63453-5.147953-45.663009 12.234745z" p-id="7151"></path></svg>
