<?xml version="1.0" standalone="no"?><!DOCTYPE svg PUBLIC "-//W3C//DTD SVG 1.1//EN" "http://www.w3.org/Graphics/SVG/1.1/DTD/svg11.dtd"><svg t="1579404842171" class="icon" viewBox="0 0 1024 1024" version="1.1" xmlns="http://www.w3.org/2000/svg" p-id="4584" xmlns:xlink="http://www.w3.org/1999/xlink" width="128" height="128"><defs><style type="text/css"></style></defs><path d="M861.184 977.408H162.816C72.704 977.408 0 904.704 0 814.592V418.816C0 328.704 72.704 256 162.816 256h698.368c90.112 0 162.816 72.704 162.816 162.816v395.776c0 90.112-72.704 162.816-162.816 162.816zM162.816 302.592c-64.512 0-116.224 52.224-116.224 116.224v395.776c0 64.512 52.224 116.224 116.224 116.224h698.368c64.512 0 116.224-52.224 116.224-116.224V418.816c0-64.512-52.224-116.224-116.224-116.224H162.816z m0-162.816h698.368v46.592H162.816v-46.592zM232.96 46.592h558.592v46.592H232.96V46.592z" p-id="4585"></path><path d="M752.128 676.864l-234.496-234.496c-1.536-1.536-3.584-3.072-5.632-3.584-2.048-0.512-4.608-0.512-6.656 0H476.16c-9.728 0-17.408 7.68-17.408 17.408s7.68 17.408 17.408 17.408h22.016l217.088 217.088-149.504 148.48-217.088-218.112 2.56-145.408H378.88c9.728 0 17.408-7.68 17.408-17.408s-7.68-17.408-17.408-17.408l-45.056 0.512c-9.216 0-16.896 7.68-17.408 16.896l-3.584 170.496c0 4.608 2.048 9.216 5.12 12.288l234.496 234.496c6.656 6.656 17.92 6.656 24.576 0l173.056-173.056c7.168-6.144 8.704-16.896 2.56-24.576 0.512 0 0-0.512-0.512-1.024z" p-id="4586"></path><path d="M386.56 572.416c-4.608 39.424 23.552 74.752 62.464 79.36s74.752-23.552 79.36-62.464c2.56-22.016-5.12-44.032-20.992-59.392-6.656-6.656-17.92-6.656-24.576 0-6.656 6.656-6.656 17.92 0 24.576 14.336 14.336 14.336 37.888 0 52.224-14.336 13.824-37.888 13.824-52.224 0-7.68-8.192-11.776-19.456-10.24-30.208 1.024-9.216-5.632-17.92-15.36-18.944-8.704-1.024-17.408 5.632-18.432 14.848z" p-id="4587"></path><path d="M465.92 590.336c9.728 0 17.408-7.68 17.408-17.408s-7.68-17.408-17.408-17.408c-6.144 0-24.064-26.624-24.064-77.312s17.408-77.312 24.064-77.312c6.144 0 7.168 4.096 12.8 16.384 3.584 8.704 13.312 13.312 22.528 10.24 8.704-3.584 13.312-13.312 10.24-22.528 0-0.512-0.512-1.536-1.024-2.048-14.336-32.256-33.792-36.864-44.032-36.864-38.4 0-58.368 55.808-58.368 111.616s19.456 112.64 57.856 112.64z" p-id="4588"></path></svg>