<?xml version="1.0" standalone="no"?><!DOCTYPE svg PUBLIC "-//W3C//DTD SVG 1.1//EN" "http://www.w3.org/Graphics/SVG/1.1/DTD/svg11.dtd"><svg class="icon" width="64px" height="64.00px" viewBox="0 0 1024 1024" version="1.1" xmlns="http://www.w3.org/2000/svg"><path d="M89.197714 444.086857a9.325714 9.325714 0 0 0 2.742857 7.168l481.572572 481.499429 359.204571-359.168-481.645714-481.609143a9.508571 9.508571 0 0 0-7.094857-2.742857h-1.133714l-324.498286 4.900571a23.881143 23.881143 0 0 0-22.272 22.162286l-6.838857 326.619428v1.170286z m-52.553143-0.731428l6.619429-316.233143v-1.097143a89.234286 89.234286 0 0 1 84.955429-84.516572h1.097142l314.221715-4.864a75.629714 75.629714 0 0 1 56.32 22.016l469.577143 469.577143a61.074286 61.074286 0 0 1 0.036571 86.637715l-354.633143 354.596571a61.293714 61.293714 0 0 1-86.674286 0L58.660571 500.041143a75.300571 75.300571 0 0 1-22.016-56.685714z" fill="#909090" /><path d="M298.752 370.834286c26.88 23.003429 70.436571 23.003429 97.28-0.036572 26.843429-23.04 26.843429-60.379429 0-83.382857-26.843429-23.04-70.4-23.04-97.28-0.036571-26.843429 23.076571-26.843429 60.379429 0 83.456M256.914286 251.501714c50.029714-42.788571 130.962286-42.788571 180.992 0 36.608 31.378286 47.579429 78.592 27.757714 119.588572C445.878857 412.123429 399.213714 438.857143 347.428571 438.857143c-51.785143 0-98.450286-26.733714-118.272-67.766857-19.785143-40.996571-8.850286-88.210286 27.757715-119.588572" fill="#909090" /></svg>