<?xml version="1.0" standalone="no"?><!DOCTYPE svg PUBLIC "-//W3C//DTD SVG 1.1//EN" "http://www.w3.org/Graphics/SVG/1.1/DTD/svg11.dtd"><svg t="1579426097849" class="icon" viewBox="0 0 1024 1024" version="1.1" xmlns="http://www.w3.org/2000/svg" p-id="25926" width="128" height="128" xmlns:xlink="http://www.w3.org/1999/xlink"><defs><style type="text/css"></style></defs><path d="M1023.744 812.288l0.256-103.872s-68.544-13.632-69.76-18.24c-1.28-5.056-2.624-10.112-4.096-14.912 8-14.848 46.656-47.616 46.656-47.616l-77.376-102.912s-50.112 41.28-62.592 47.168c-5.824-2.304-11.904-4.288-18.304-6.208-6.72-1.664-25.344-67.776-25.344-67.776l-104.128-0.896s-11.264 64-28.032 68.352c-5.696 1.6-11.328 3.776-16.96 6.4-12.48-6.08-62.592-48-62.592-48L524.096 628.48s38.784 39.04 41.344 52.096c-1.6 4.096-3.2 8.32-4.608 12.544-16.64 5.824-64 15.232-64 15.232l0.256 103.872s54.976 11.456 65.472 20.608a194.338 194.338 0 0 0 7.36 17.536c-12.672 15.872-46.656 42.304-46.656 42.304l79.744 103.872s62.656-40.576 72.96-42.88c5.12 2.176 10.304 4.288 15.616 6.144 9.408 3.328 16.128 63.808 16.128 63.808l104.064 0.384s3.584-59.392 11.2-61.76c7.488-2.368 14.912-5.12 22.08-8.256 8.768 3.456 49.792 44.352 49.792 44.352l102.784-104.704s-38.208-26.368-48.704-40.576a252.989 252.989 0 0 0 7.808-18.112c3.52-9.408 67.008-22.656 67.008-22.656z m-264.512 78.72c-72.448 0-131.2-58.752-131.2-131.2s58.752-131.136 131.2-131.136 131.136 58.688 131.136 131.136-58.752 131.2-131.136 131.2zM425.536 492.096c119.296 0 240.704-117.312 240.704-241.536S550.656 0 431.36 0C312.064 0 193.408 129.408 193.408 253.568c0 124.224 112.832 238.528 232.128 238.528z m52.48 51.712H239.424c-59.712 0-149.184 31.104-178.944 124.16-29.76 93.12-29.76 93.12-59.712 186.304-14.976 46.784 203.584 70.592 420.928 69.824 72.128-0.192 22.976-59.456 22.976-134.592 0-171.2 146.048-245.696 33.344-245.696z m0 0" fill="" p-id="25927"></path></svg>